PathFileType	4	(X/Y/Z)	C:/Users/beibeiliu/ov580/test_trc\sequence.37_training_dense_right.trc
DataRate	CameraRate	NumFrames	NumMarkers	Units	OrigDataRate	OrigDataStartFrame	OrigNumFrames
120	120	16	19	mm	120	77	152
Frame#	Time	ThumbCMC			ThumbMCP			ThumbIP			ThumbTip			IndexMCP			IndexPIP			IndexTip			MiddleMCP			MiddlePIP			MiddleTip			RingMCP			RingPIP			RingTip			PinkyMCP			PinkyPIP			PinkyTip			BackHand1			BackHand2			BackHand3	
		X0	Y0	Z0	X1	Y1	Z1	X2	Y2	Z2	X3	Y3	Z3	X4	Y4	Z4	X5	Y5	Z5	X6	Y6	Z6	X7	Y7	Z7	X8	Y8	Z8	X9	Y9	Z9	X10	Y10	Z10	X11	Y11	Z11	X12	Y12	Z12	X13	Y13	Z13	X14	Y14	Z14	X15	Y15	Z15	X16	Y16	Z16	X17	Y17	Z17	X18	Y18	Z18	
76	0.633333	63.3231	27.4548	32.1539	58.6532	4.54302	5.76893	64.2692	-6.50522	-11.4949	74.2375	-18.2996	-30.9843	69.7249	51.8743	-27.2735	62.3704	42.2235	-54.5903	70.7701	14.8255	-67.8131	89.3557	60.3093	-31.3563	95.2621	60.9941	-59.2244	98.1642	49.0919	-82.6044	109.043	56.6192	-22.304	115.911	59.4471	-49.3018	118.826	53.4017	-68.5848	127.392	48.7058	-10.2569	136.43	50.4171	-27.3127	142.159	50.5108	-50.0638	105.619	55.1195	20.8498	106.859	58.7362	41.8835	79.4067	56.8745	31.1176	
77	0.641667	61.3292	24.6336	31.0401	62.6852	2.29045	9.60947	66.2601	-8.84052	-11.1684	79.1747	-19.0497	-30.5486	59.0299	49.564	-30.6083	57.3751	42.3336	-54.3286	61.6251	27.6762	-75.0569	85.8752	60.3912	-32.2892	85.1606	63.3926	-55.9624	93.6143	62.456	-82.2532	108.999	60.9208	-26.0034	107.708	62.7037	-45.683	110.884	63.8446	-65.7179	127.918	51.153	-10.4977	134.881	53.8807	-29.5822	141.119	56.5431	-49.9746	102.803	56.0489	16.8233	104.368	57.2833	40.7257	78.7466	55.5776	28.035	
78	0.65	60.8225	19.685	33.8317	61.9759	-4.14469	13.0911	67.8595	-15.5822	-13.8956	82.9971	-19.6937	-29.8351	59.1363	41.5849	-27.2372	51.2176	35.6322	-51.6528	53.8878	28.7902	-74.7441	79.5022	55.1165	-29.9465	82.1327	59.8524	-55.1586	82.4047	62.7953	-79.4161	102.493	59.7382	-25.2842	104.972	66.2963	-46.1623	105.035	69.4637	-65.3698	122.631	56.7224	-13.7825	128.585	60.5158	-25.6913	130.301	69.4305	-42.76	96.3786	58.5415	17.8022	94.4543	59.1496	43.9737	72.7729	52.5794	27.1841	
79	0.658333	60.7036	14.4733	33.5421	61.5756	-8.83451	13.5929	68.5155	-18.1045	-3.84714	78.2827	-24.6408	-25.5037	51.5176	32.5103	-29.9541	50.5795	29.6062	-52.6548	44.8084	22.67	-71.3611	71.7715	47.8493	-31.8731	72.8693	49.6426	-54.8263	71.5113	53.3592	-83.3136	92.834	54.4451	-23.7966	93.6579	60.5793	-47.729	95.1767	64.941	-68.6086	116.491	58.982	-12.808	116.306	61.9601	-27.8762	122.963	76.1876	-40.2123	90.4607	56.9524	18.8604	88.4113	57.9244	41.2359	66.9562	46.7103	29.7523	
80	0.666667	57.0564	12.1549	37.1206	58.5803	-12.1119	13.506	63.283	-22.5076	-4.87316	69.0256	-33.7739	-23.6795	48.9454	31.4812	-28.3614	43.0227	25.8018	-48.3363	38.7553	22.9435	-68.7704	68.1093	41.6877	-33.3296	68.4758	41.8027	-55.9791	64.1535	40.8434	-79.5583	87.2773	48.0225	-25.7242	87.1275	46.079	-48.3046	86.9719	45.3255	-70.4995	107.217	53.0458	-13.9399	112.978	58.5253	-30.0473	115.824	70.4787	-44.1565	84.8536	53.1954	18.863	86.5713	54.4414	42.0696	63.0721	43.4144	31.2743	
81	0.675	52.0828	10.6928	37.8412	53.7012	-12.4211	15.7628	55.813	-23.2982	-4.40666	64.4309	-28.7015	-22.8635	39.47	29.5744	-24.8538	34.9474	25.2862	-45.9677	29.1212	23.3084	-67.8228	63.3819	39.9418	-34.8875	62.4926	35.1255	-58.6765	58.4543	31.3671	-80.8176	83.4218	40.4509	-29.1921	81.1268	31.0303	-52.0554	86.7675	21.1645	-70.981	103.658	46.1518	-16.8677	108.534	48.6297	-31.8018	108.965	57.5953	-45.4562	83.2302	49.864	20.9473	87.3527	53.413	44.0253	62.3995	44.7507	31.2857	
82	0.683333	44.1744	8.78943	37.4722	47.6036	-11.9995	14.4386	52.1908	-19.8694	-7.87815	58.9987	-27.7193	-26.3613	37.1934	32.0732	-25.1048	30.6417	28.2759	-43.6241	27.4393	23.9045	-63.457	56.7923	39.3999	-30.0099	52.9454	35.1633	-52.269	55.7553	24.1531	-82.5102	77.8536	36.3193	-29.1403	76.8945	21.0367	-50.2898	80.5341	4.63049	-61.2732	98.0539	41.4044	-13.4943	103.844	41.253	-32.6269	103.904	44.9485	-48.8122	80.2382	49.0274	17.2695	80.7678	50.853	42.8801	56.1454	42.8599	30.7858	
83	0.691667	42.78	9.78323	39.6119	42.0931	-13.6861	13.5485	45.533	-21.3038	-6.05139	53.9769	-27.703	-27.3576	32.3337	34.1195	-20.396	22.6884	28.1702	-44.7288	18.3091	19.7071	-65.7453	53.1786	42.4008	-27.3742	50.4131	35.1491	-53.2777	53.2414	15.7506	-75.2525	71.3026	38.4166	-23.4529	74.3285	25.3735	-46.1568	73.1247	-1.94102	-54.107	93.5932	42.6202	-15.6849	96.6315	40.8135	-35.7101	98.5264	39.054	-52.1061	77.1422	49.5188	21.0474	80.6037	48.2094	48.5564	51.6231	44.0707	34.2291	
84	0.7	40.4185	9.22313	40.3198	40.8113	-10.4341	15.0209	41.0583	-21.9852	-7.47955	50.6729	-26.509	-24.4444	24.5199	34.3415	-18.7674	22.7629	29.3142	-44.2969	20.4904	16.6411	-65.0745	49.0333	42.1586	-24.6907	49.1818	32.1072	-55.6533	58.6877	5.66415	-67.3801	67.3447	42.9016	-24.9564	74.5918	29.5257	-47.1061	70.5741	2.91663	-48.6643	91.8554	44.5122	-7.89804	98.3998	45.0524	-30.9339	94.7634	36.1385	-50.4881	69.4637	48.327	21.2586	75.9689	48.3531	47.1991	50.84	42.8274	34.3085	
85	0.708333	41.2542	10.8578	40.162	38.2756	-10.2131	17.9359	40.4773	-17.8552	-4.52999	45.0021	-27.8803	-23.7543	31.3587	38.2318	-14.932	25.6451	35.113	-42.1182	26.9876	17.4972	-63.5128	51.4685	46.1694	-26.3948	56.1653	37.7452	-51.3434	62.2163	3.49452	-58.038	76.2533	46.9733	-21.7067	73.8157	35.6795	-43.6848	77.6673	7.25991	-48.0044	95.8268	45.431	-9.26746	101.282	45.1769	-28.736	97.5246	31.4548	-49.9223	74.4649	46.8696	26.93	80.1061	44.6916	52.7984	55.008	42.746	40.7749	
86	0.716667	40.446	13.232	40.9716	34.9058	-7.90529	21.1239	32.6428	-16.2735	-4.02696	38.3081	-25.7813	-21.8897	36.8809	46.5253	-15.2369	33.947	44.719	-38.999	37.7423	23.2071	-62.5539	61.434	52.1338	-21.129	63.7751	43.9113	-50.9473	65.0505	11.1084	-55.9847	82.0223	50.3886	-19.3644	78.9692	39.5927	-43.5227	76.3681	13.2792	-49.4776	100.676	43.2983	-5.6498	104.983	44.1816	-28.1206	104.637	34.5567	-46.6114	80.4775	46.1726	26.4351	83.8615	46.8254	53.7358	56.9244	45.6766	38.7432	
87	0.725	41.4175	15.7118	43.7225	33.1019	-2.4692	17.8786	27.5656	-13.3168	-2.78343	32.7535	-22.2209	-24.0936	44.212	51.2948	-13.7529	40.5038	51.5996	-38.8774	37.8677	31.7752	-59.4073	64.9892	57.2796	-19.9642	65.4297	54.396	-47.4785	70.6775	27.7184	-62.3973	84.7542	52.1417	-15.1361	87.4744	47.1844	-41.6411	82.9417	27.0582	-55.5904	106.92	41.4324	-3.73976	110.536	42.1094	-24.7809	114.27	33.7728	-46.3347	85.2897	46.7988	29.8103	85.4179	43.11	52.3136	60.5079	44.1708	41.7699	
88	0.733333	40.5237	14.9775	44.7906	28.1323	-3.91909	21.7096	25.3847	-11.5219	1.41858	27.7659	-20.726	-20.1106	45.9972	49.457	-13.4738	43.4997	50.1035	-43.3163	40.5808	27.3321	-60.5138	69.5709	57.5709	-17.9454	69.8292	60.9377	-44.2098	70.1712	41.7283	-70.1711	83.2106	51.4957	-15.2878	87.0735	52.5071	-41.292	89.3426	39.4216	-63.4081	104.208	40.0408	-2.88311	114.38	42.9111	-23.658	118.731	42.0051	-45.6989	82.2416	43.4747	25.2398	83.1162	42.0971	50.7178	58.7033	43.9898	39.5864	
89	0.741667	38.9346	12.4502	40.3292	28.2706	-6.62573	23.6368	19.6479	-15.7488	2.4722	20.2995	-24.4504	-13.93	39.4837	41.3759	-16.3328	33.8559	39.0788	-41.8017	41.2991	16.8726	-62.6545	63.9593	51.3462	-18.8446	61.9156	57.6269	-47.1483	64.4114	48.7373	-74.9054	80.34	49.6707	-16.1725	86.0883	54.539	-36.676	84.4249	55.3287	-59.658	104.495	40.8023	-3.20328	108.143	46.5261	-18.3931	116.205	55.0557	-32.8004	82.4435	42.1207	27.923	84.0498	40.6298	50.149	53.8189	41.7339	36.8751	
90	0.75	37.3773	6.8817	44.3973	24.8968	-10.5943	24.0584	16.1411	-19.1985	3.45889	11.897	-30.0796	-12.2129	29.6806	28.1898	-20.243	31.7455	20.2568	-43.7107	35.3277	-0.944761	-59.7946	56.334	44.312	-21.4077	52.2794	47.4238	-48.056	54.5223	48.4151	-72.7026	76.7551	47.1083	-15.8254	76.7582	55.3329	-40.1595	78.0174	62.6685	-59.0067	96.3503	42.8875	-3.50799	104.61	52.2565	-17.2299	106.344	62.59	-28.7215	73.6175	42.1515	23.0376	75.7268	39.5339	53.0616	48.1223	37.7593	36.8875	
91	0.758333	39.7451	5.0563	43.6788	24.0665	-13.5599	24.6559	19.6213	-22.6264	9.28155	10.0198	-32.8859	-7.62089	30.5676	17.4592	-21.9606	28.8958	1.76353	-44.6052	35.9805	-15.4933	-59.2565	50.4635	36.2547	-26.3493	47.0545	37.4679	-53.0521	46.9985	39.1856	-75.4119	69.2217	44.4931	-19.8211	71.9253	53.864	-40.5166	68.3212	59.6338	-55.6906	93.8138	43.9318	-3.8674	96.5302	54.1255	-20.36	97.699	64.9825	-28.9606	70.3171	41.8765	21.1468	74.4598	41.0443	49.4848	46.8704	32.6438	38.387	
